<?xml version="1.0" encoding="UTF-8"?>
<svg xmlns="http://www.w3.org/2000/svg" xmlns:xlink="http://www.w3.org/1999/xlink" xmlns:svgjs="http://svgjs.com/svgjs" version="1.1" width="512" height="512" x="0" y="0" viewBox="0 0 512 512" style="enable-background:new 0 0 512 512" xml:space="preserve" class="">
  <g transform="matrix(1,0,0,1,0,15.000000000000227)">
    <g xmlns="http://www.w3.org/2000/svg" id="outline">
      <path d="M468,48H44A28.032,28.032,0,0,0,16,76V372a28.032,28.032,0,0,0,28,28H399.924l40.783,44.439,10.818,11.789a24,24,0,1,0,35.365-32.456l-10.819-11.788-11-11.984H468a28.032,28.032,0,0,0,28-28V76A28.032,28.032,0,0,0,468,48ZM32,76A12.013,12.013,0,0,1,44,64H468a12.013,12.013,0,0,1,12,12V96H32Zm72,308V144H408V337.809L367.889,294.1c-.1-.11-.21-.209-.316-.312-.07-.068-.135-.139-.208-.2a8.141,8.141,0,0,0-.653-.535L359.8,288H384a8,8,0,0,0,0-16H337.34a17.751,17.751,0,0,0-22.766,25.255h0l16.965,27.976.035.057,0,.006c.006.011.014.02.021.031a7.923,7.923,0,0,0,.451.659c.064.084.135.162.2.243.09.11.175.223.272.329L341.191,336H144a8,8,0,0,0,0,16H355.874l29.367,32Zm348.98,38.317-5.9,5.41-10.818-11.789,11.789-10.818,10.818,11.788ZM425.449,404.15l-75.728-82.519,11.789-10.818,75.728,82.519Zm-96.879-117.4a1.762,1.762,0,0,1,2.226-.125l18.6,13.587-9.2,8.44-11.944-19.695h0A1.761,1.761,0,0,1,328.57,286.752ZM474.617,445.894a8.011,8.011,0,0,1-11.3-.485l-5.409-5.894L469.692,428.7l5.41,5.895a8,8,0,0,1-.485,11.3ZM468,384H450.39L424,355.243V136a8,8,0,0,0-8-8H96a8,8,0,0,0-8,8V384H44a12.013,12.013,0,0,1-12-12V112H480V372A12.013,12.013,0,0,1,468,384Z" fill="#708cd5" data-original="#000000" style=""/>
      <circle cx="56" cy="80" r="8" fill="#708cd5" data-original="#000000" style=""/>
      <circle cx="88" cy="80" r="8" fill="#708cd5" data-original="#000000" style=""/>
      <circle cx="120" cy="80" r="8" fill="#708cd5" data-original="#000000" style=""/>
      <path d="M304,312V168a8,8,0,0,0-8-8H128a8,8,0,0,0-8,8V312a8,8,0,0,0,8,8H296A8,8,0,0,0,304,312Zm-16-8H136V176H288Z" fill="#708cd5" data-original="#000000" style=""/>
      <path d="M176,264h.03a19.115,19.115,0,0,0,14.48,17.875L200.2,284.3a19.32,19.32,0,0,0,4.688.58A19.171,19.171,0,0,0,224,265.711v-.627l30.265,6.726A8,8,0,0,0,264,264V200a8,8,0,0,0-9.735-7.81l-62.36,13.858A23.983,23.983,0,0,0,152,224v16A24.027,24.027,0,0,0,176,264Zm32,1.711a3.156,3.156,0,0,1-3.922,3.062l-9.687-2.421A3.152,3.152,0,0,1,192,263.29v-5.317l16,3.555Zm40-11.684-48.233-10.719A24.063,24.063,0,0,0,200,240V224a24.063,24.063,0,0,0-.233-3.308L248,209.973ZM168,224a8,8,0,0,1,16,0v16a8,8,0,0,1-16,0Z" fill="#708cd5" data-original="#000000" style=""/>
      <path d="M344,192h40a8,8,0,0,0,0-16H344a8,8,0,0,0,0,16Z" fill="#708cd5" data-original="#000000" style=""/>
      <path d="M328,240h56a8,8,0,0,0,0-16H328a8,8,0,0,0,0,16Z" fill="#708cd5" data-original="#000000" style=""/>
    </g>
  </g>
</svg>
